<svg width="47" height="19" xmlns="http://www.w3.org/2000/svg" xmlns:xlink="http://www.w3.org/1999/xlink" overflow="hidden"><defs><clipPath id="clip0"><rect x="555" y="149" width="47" height="19"/></clipPath><clipPath id="clip1"><rect x="555" y="150" width="46" height="17"/></clipPath><clipPath id="clip2"><rect x="555" y="150" width="46" height="17"/></clipPath></defs><g clip-path="url(#clip0)" transform="translate(-555 -149)"><g clip-path="url(#clip1)"><g clip-path="url(#clip2)"><path d="M29.3449 68.2137 7.49559 46.3645 28.8619 24.9982 32.9574 29.0937 15.6866 46.3645 33.4404 64.1182 29.3449 68.2137Z" transform="matrix(1.04895 0 0 1 529.4 112.136)"/><path d="M62.9011 68.2137 58.8056 64.1182 76.5593 46.3645 59.2886 29.0937 63.3841 24.9982 84.7504 46.3645 62.9011 68.2137Z" transform="matrix(1.04895 0 0 1 529.4 112.136)"/><path d="M51.1941 46.3645C51.1941 49.0318 49.0318 51.1941 46.3645 51.1941 43.6971 51.1941 41.5348 49.0318 41.5348 46.3645 41.5348 43.6971 43.6971 41.5348 46.3645 41.5348 49.0318 41.5348 51.1941 43.6971 51.1941 46.3645Z" transform="matrix(1.04895 0 0 1 529.4 112.136)"/><path d="M35.7393 46.3645C35.7393 49.0318 33.577 51.1941 30.9097 51.1941 28.2423 51.1941 26.08 49.0318 26.08 46.3645 26.08 43.6971 28.2423 41.5348 30.9097 41.5348 33.577 41.5348 35.7393 43.6971 35.7393 46.3645Z" transform="matrix(1.04895 0 0 1 529.4 112.136)"/><path d="M66.6489 46.3645C66.6489 49.0318 64.4866 51.1941 61.8193 51.1941 59.152 51.1941 56.9897 49.0318 56.9897 46.3645 56.9897 43.6971 59.152 41.5348 61.8193 41.5348 64.4866 41.5348 66.6489 43.6971 66.6489 46.3645Z" transform="matrix(1.04895 0 0 1 529.4 112.136)"/></g></g></g></svg>